<svg xmlns="http://www.w3.org/2000/svg" width="29.118" height="29.117" viewBox="0 0 29.118 29.117">
  <g id="united-states" transform="translate(0.339 0.339)">
    <circle id="Ellipse_40" data-name="Ellipse 40" cx="14.5" cy="14.5" r="14.5" transform="translate(-0.339 -0.339)" fill="#f0f0f0"/>
    <g id="Group_653" data-name="Group 653" transform="translate(0.457 3.093)">
      <path id="Path_219" data-name="Path 219" d="M244.87,192.976h15.036a14.426,14.426,0,0,0-.5-3.759H244.87Z" transform="translate(-231.584 -181.699)" fill="#d80027"/>
      <path id="Path_220" data-name="Path 220" d="M244.87,59.411h12.921a14.487,14.487,0,0,0-3.325-3.759h-9.6Z" transform="translate(-231.584 -55.652)" fill="#d80027"/>
      <path id="Path_221" data-name="Path 221" d="M105.613,459.48a14.347,14.347,0,0,0,8.97-3.133H96.644A14.347,14.347,0,0,0,105.613,459.48Z" transform="translate(-91.701 -433.794)" fill="#d80027"/>
      <path id="Path_222" data-name="Path 222" d="M10.438,326.541H35.026a14.323,14.323,0,0,0,1.619-3.759H8.819A14.323,14.323,0,0,0,10.438,326.541Z" transform="translate(-8.819 -307.746)" fill="#d80027"/>
    </g>
    <path id="Path_223" data-name="Path 223" d="M6.675,2.25H7.988l-1.221.887.467,1.436L6.012,3.686,4.79,4.573l.4-1.24A14.488,14.488,0,0,0,2.4,6.448h.421l-.777.565q-.182.3-.349.616l.371,1.143-.693-.5Q1.113,8.815.9,9.386l.409,1.259h1.51L1.6,11.532l.467,1.436L.843,12.081l-.732.532A14.548,14.548,0,0,0,0,14.409H14.409V0A14.341,14.341,0,0,0,6.675,2.25Zm.558,10.718-1.221-.887-1.221.887.467-1.436-1.221-.887h1.51l.466-1.436.466,1.436h1.51l-1.221.887ZM6.766,7.335l.467,1.436L6.012,7.883,4.79,8.771l.467-1.436L4.035,6.448h1.51l.466-1.436.466,1.436h1.51ZM12.4,12.968l-1.221-.887-1.221.887.467-1.436L9.2,10.645h1.51l.466-1.436.466,1.436h1.51l-1.221.887Zm-.467-5.633L12.4,8.771,11.18,7.883l-1.221.887.467-1.436L9.2,6.448h1.51l.466-1.436.466,1.436h1.51Zm0-4.2L12.4,4.573,11.18,3.686l-1.221.887.467-1.436L9.2,2.25h1.51L11.18.814l.466,1.436h1.51Z" transform="translate(-0.04 -0.04)" fill="#0052b4"/>
  </g>
</svg>
