<svg id="Group_767" data-name="Group 767" xmlns="http://www.w3.org/2000/svg" width="29.116" height="29.075" viewBox="0 0 29.116 29.075">
  <path id="Path_206" data-name="Path 206" d="M212.935,140.381a12.2,12.2,0,0,1-4.047-1.146,14.265,14.265,0,0,1-8.375-11.039,14.544,14.544,0,1,1,18.3,11.8.59.59,0,0,1-.111.01c-.208-.065-.461-.059-.383-.421.047-.216.09-.369.334-.4.12-.016.244-.048.277-.2a13.611,13.611,0,1,0-6.805.328,14.4,14.4,0,0,0,3.616.253c.19-.008.248-.078.286-.255a17.141,17.141,0,0,0,.3-2.224c.108-.02.131-.1.131-.192q0-.858,0-1.715c0-.1-.023-.172-.131-.192a8.856,8.856,0,0,0-1.054-3.712,7.733,7.733,0,0,0-2.95-2.754c-.775-.454-1.563-.887-2.331-1.354a8.588,8.588,0,0,1-3.869-8.914c.018-.084.05-.166.089-.294a2.9,2.9,0,0,0,1.7,1.581,17.3,17.3,0,0,0,3.467,1.047,13.356,13.356,0,0,1,3.363,1.116,4.818,4.818,0,0,1,2.514,3.067,7.226,7.226,0,0,1-.077,3.437c-.151.68-.342,1.35-.555,2.041a13.467,13.467,0,0,0-4.8-6.326c-.059.123-.007.163.034.2a19.152,19.152,0,0,1,4.371,7.461,15.832,15.832,0,0,1,.821,3.026.311.311,0,0,0-.107.3,9.813,9.813,0,0,1,.2,2.055,18.815,18.815,0,0,1-.128,2.688c-.061.326,0,.589-.517.642a15.3,15.3,0,0,1-1.654.047,4.069,4.069,0,0,1-1.614-.088C213.123,140.21,213.014,140.294,212.935,140.381Zm-1.332-16.5a.386.386,0,0,0,.118.069c.023,0,.056-.046.02-.076a.535.535,0,0,0-.114-.057Z" transform="translate(-200.324 -111.458)" fill="#83cb35"/>
  <path id="Path_207" data-name="Path 207" d="M262.594,146.693a7.7,7.7,0,0,0-3.528,4.68,9.352,9.352,0,0,1-.412-1.47,6.037,6.037,0,0,1-.171-2.116,3.535,3.535,0,0,1,1.953-2.756,12.573,12.573,0,0,1,3.093-.97,10.047,10.047,0,0,0,1.954-.629,2.166,2.166,0,0,0,1.25-1.151,5.6,5.6,0,0,1-2.208,6.423,10.238,10.238,0,0,1-2.2,1.112,5.048,5.048,0,0,0-2.648,1.741A13.726,13.726,0,0,1,262.594,146.693Zm.147-.072c.028-.014.059-.036.025-.064-.015-.012-.055.007-.084.012-.027.032-.076.065-.013.1C262.679,146.679,262.717,146.64,262.742,146.621Z" transform="translate(-241.046 -133.053)" fill="#83cb35"/>
  <path id="Path_208" data-name="Path 208" d="M242.446,194.571c.078-.088.188-.172.292-.128a4.07,4.07,0,0,0,1.614.088,15.292,15.292,0,0,0,1.654-.047c.521-.052.456-.316.517-.642a18.813,18.813,0,0,0,.128-2.688,9.813,9.813,0,0,0-.2-2.055.311.311,0,0,1,.107-.3,14.3,14.3,0,0,1,.2,4.5c-.027.247-.1.493-.1.739,0,.416-.2.568-.6.6A14.08,14.08,0,0,1,242.446,194.571Z" transform="translate(-229.835 -165.647)" fill="#83cb35"/>
  <path id="Path_209" data-name="Path 209" d="M260.763,203.4c-.033.149-.157.181-.277.2-.243.033-.287.186-.334.4-.078.362.175.356.383.421-.081.027-.164.051-.244.082-.213.081-.268.01-.26-.213C260.054,203.585,260.046,203.585,260.763,203.4Z" transform="translate(-242.154 -175.872)" fill="#83cb35"/>
  <path id="Path_210" data-name="Path 210" d="M253.774,190.047c.108.02.131.1.131.192q0,.857,0,1.715c0,.1-.022.172-.131.192A18.389,18.389,0,0,0,253.774,190.047Z" transform="translate(-237.771 -166.518)" fill="#83cb35"/>
  <path id="Path_211" data-name="Path 211" d="M262.325,173.578l-.028.025c-.007-.01-.022-.02-.021-.029s.016-.018.024-.027Z" transform="translate(-243.727 -154.958)" fill="#83cb35"/>
  <path id="Path_212" data-name="Path 212" d="M238,152.807l.024-.064a.535.535,0,0,1,.114.057c.036.03,0,.08-.02.076A.387.387,0,0,1,238,152.807Z" transform="translate(-226.718 -140.382)" fill="#fefefe"/>
  <path id="Path_213" data-name="Path 213" d="M272.588,156.566c.029,0,.069-.024.084-.012.034.028,0,.049-.025.064Z" transform="translate(-250.952 -143.05)" fill="#fefefe"/>
  <path id="Path_214" data-name="Path 214" d="M272.546,156.656c-.025.018-.062.058-.072.051-.063-.038-.014-.071.013-.1Z" transform="translate(-250.85 -143.087)" fill="#fefefe"/>
</svg>
