<?xml version="1.0" encoding="UTF-8"?>
<svg width="24px" height="24px" viewBox="0 0 24 24" version="1.1" xmlns="http://www.w3.org/2000/svg" xmlns:xlink="http://www.w3.org/1999/xlink">
    <title>ic:outline-message</title>
    <defs>
        <filter id="filter-1">
            <feColorMatrix in="SourceGraphic" type="matrix" values="0 0 0 0 0.490196 0 0 0 0 0.392157 0 0 0 0 0.725490 0 0 0 1.000000 0"></feColorMatrix>
        </filter>
    </defs>
    <g id="Page-1" stroke="none" stroke-width="1" fill="none" fill-rule="evenodd">
        <g filter="url(#filter-1)" id="ic:outline-message">
            <g>
                <rect id="ViewBox" x="0" y="0" width="24" height="24"></rect>
                <path d="M4,4 L20,4 L20,16 L5.17,16 L4,17.17 L4,4 M4,2 C2.9,2 2.01,2.9 2.01,4 L2,22 L6,18 L20,18 C21.1,18 22,17.1 22,16 L22,4 C22,2.9 21.1,2 20,2 L4,2 Z M6,12 L18,12 L18,14 L6,14 L6,12 Z M6,9 L18,9 L18,11 L6,11 L6,9 Z M6,6 L18,6 L18,8 L6,8 L6,6 Z" id="Shape" fill="#000000" fill-rule="nonzero"></path>
            </g>
        </g>
    </g>
</svg>