<svg xmlns="http://www.w3.org/2000/svg" width="40" height="40" viewBox="0 0 40 40">
  <g id="Group_1175" data-name="Group 1175" transform="translate(-795 -7748)">
    <g id="Group_1174" data-name="Group 1174">
      <g id="Group_1173" data-name="Group 1173">
        <circle id="Ellipse_42" data-name="Ellipse 42" cx="20" cy="20" r="20" transform="translate(795 7748)" fill="#fff"/>
      </g>
    </g>
    <g id="add-to-cart" transform="translate(806.16 7759)">
      <path id="Path_36" data-name="Path 36" d="M17.582,7.4c-2.844,6.024-3.77,6.024-4.322,6.024H7.82A3.592,3.592,0,0,1,4.1,10.564c-.011-.053-1.088-5.34-1.363-6.817C2.6,3.023,2.258,2.54,1.02,2.54A1.02,1.02,0,0,1,1.02.5,3.4,3.4,0,0,1,4.742,3.372C5.015,4.834,6.089,10.1,6.1,10.157a1.584,1.584,0,0,0,1.72,1.224h5.171a28.767,28.767,0,0,0,2.746-4.856,1.02,1.02,0,0,1,1.845.871ZM7.14,14.1a1.7,1.7,0,1,0,1.7,1.7A1.7,1.7,0,0,0,7.14,14.1Zm6.12,0a1.7,1.7,0,1,0,1.7,1.7A1.7,1.7,0,0,0,13.26,14.1Z" fill="#6b4eaf"/>
      <g id="Group_102" data-name="Group 102">
        <path id="Path_81" data-name="Path 81" d="M8.034,5.95h4.629" fill="none" stroke="#6b4eaf" stroke-linecap="round" stroke-width="1.6"/>
        <path id="Path_82" data-name="Path 82" d="M8.034,5.95h4.629" transform="translate(16.299 -4.399) rotate(90)" fill="none" stroke="#6b4eaf" stroke-linecap="round" stroke-width="1.6"/>
      </g>
    </g>
  </g>
</svg>
