<svg xmlns="http://www.w3.org/2000/svg" width="26.311" height="20.098" viewBox="0 0 26.311 20.098">
  <g id="Group_169" data-name="Group 169" transform="translate(-518.258 -499.347)">
    <path id="Path_26" data-name="Path 26" d="M542.685,505.655H530.3a6.819,6.819,0,0,1-.716-.019.956.956,0,0,1-.179-1.854,2.648,2.648,0,0,1,.771-.082q5.994-.007,11.988,0a2.14,2.14,0,0,1,2.217,3.077q-.8,2.338-1.644,4.661a3.648,3.648,0,0,1-3.582,2.518q-4.3.017-8.6,0a3.731,3.731,0,0,1-3.616-2.485c-1.163-2.92-2.31-5.847-3.466-8.77a1.782,1.782,0,0,0-2.022-1.366c-.717,0-1.434.013-2.15-.005a.975.975,0,1,1-.016-1.947,25.71,25.71,0,0,1,2.8.015,3.628,3.628,0,0,1,3.18,2.518q1.634,4.144,3.265,8.29c.634,1.607.914,1.795,2.653,1.795q3.974,0,7.949,0a1.646,1.646,0,0,0,1.8-1.278q.756-2.147,1.514-4.293C542.523,506.208,542.584,505.985,542.685,505.655Z" transform="translate(0 0)" fill="#6b4eaf"/>
    <path id="Path_27" data-name="Path 27" d="M562.784,590.131a2.147,2.147,0,0,1,2.135,2.153,2.152,2.152,0,1,1-4.3-.037A2.134,2.134,0,0,1,562.784,590.131Z" transform="translate(-34.994 -75.002)" fill="#6b4eaf"/>
    <path id="Path_28" data-name="Path 28" d="M642.565,590.129a2.16,2.16,0,0,1,2.159,2.141,2.195,2.195,0,0,1-2.2,2.176,2.167,2.167,0,0,1-2.116-2.185A2.145,2.145,0,0,1,642.565,590.129Z" transform="translate(-100.916 -75.001)" fill="#6b4eaf"/>
  </g>
</svg>
